# xmcd
# 
# Track frame offsets:
#     150
#     37050
#     61710
#     89638
#     123014
#     157301
#     184860
#     208626
#     234108
# 
# Disc length: 3460
# 
# Revision: 2
# Processed by: cddbd v1.5.2PL0 Copyright (c) Steve Scherf et al.
# Submitted via: fre:ac v1.0.31
# 
DISCID=750d8209
DTITLE=Spyro Gyra - The Rhinebeck Sessions
DYEAR=2013
DGENRE=Jazz
TTITLE0=Serious Delivery
TTITLE1=Wishful Thinking
TTITLE2=Not Unlike That
TTITLE3=Sorbet
TTITLE4=I Know What You Mingus
TTITLE5=Off The Cuff
TTITLE6=Clubhouse Jam
TTITLE7=Odds Get Even
TTITLE8=Who Knew!
EXTD=
EXTT0=
EXTT1=
EXTT2=
EXTT3=
EXTT4=
EXTT5=
EXTT6=
EXTT7=
EXTT8=
PLAYORDER=
